<svg xmlns="http://www.w3.org/2000/svg" width="72" height="72" viewBox="-64 -64 1152 1152" fill="#9ED94E"><path d="M356.906667 426.666667L477.866667 341.333333h148.992L580.266667 213.333333H469.333333V128h170.666667l46.592 128H853.333333v128h-120.149333l62.122667 170.752a192 192 0 1 1-84.693334 16.725333L657.877333 426.666667h-40.405333l-67.498667 250.453333-124.8 45.610667A192 192 0 1 1 170.666667 565.589333V512H85.333333v-85.333333h271.573334zM234.666667 853.333333a106.666667 106.666667 0 1 0 0-213.333333 106.666667 106.666667 0 0 0 0 213.333333z m554.666666 0a106.666667 106.666667 0 1 0 0-213.333333 106.666667 106.666667 0 0 0 0 213.333333z"/></svg>